<?xml version="1.0" encoding="UTF-8"?>
<svg version="1.1" xmlns="http://www.w3.org/2000/svg" width="282" height="183">
<path d="M0 0 C1.36880015 -0.003234 2.7376 -0.00659943 4.10639954 -0.01008606 C6.95936885 -0.01601591 9.81230818 -0.01793275 12.6652832 -0.01733398 C15.52407245 -0.01725339 18.38269918 -0.02410015 21.24145508 -0.0378418 C106.41133368 -0.44065056 106.41133368 -0.44065056 130.67578125 21.91796875 C144.32366966 36.77516373 146.08284962 57.44716239 149.71020508 76.49316406 C150.35967285 79.89904587 151.01820155 83.30308589 151.67773438 86.70703125 C154.20135722 99.82232636 156.44140963 112.94262735 158.30078125 126.16796875 C158.51490784 127.65249343 158.72949511 129.13695176 158.94458008 130.62133789 C160.88608803 144.17876498 161.51201202 156.48108475 153.30078125 168.16796875 C147.45470722 175.38287963 140.35527352 179.22772041 131.30078125 181.16796875 C121.82329675 181.9711454 112.13814484 179.78633197 104.46508789 174.0234375 C97.92611063 168.41754611 93.75452359 160.82041166 89.80078125 153.29296875 C88.8540853 151.53509735 87.90487892 149.77857554 86.953125 148.0234375 C86.50050293 147.1886084 86.04788086 146.3537793 85.58154297 145.49365234 C80.79037466 136.15616692 80.79037466 136.15616692 73.30078125 129.16796875 C71.31735907 128.77020193 71.31735907 128.77020193 69.23828125 128.91796875 C68.45324219 128.94117188 67.66820312 128.964375 66.859375 128.98828125 C64.16065077 129.17780997 61.48824888 129.48389113 58.80078125 129.79296875 C49.45833404 130.6635445 41.62828585 128.1488624 34.30078125 122.16796875 C33.55158765 120.95879169 32.81692493 119.7405406 32.09375 118.515625 C30.57754156 116.29195076 29.80428247 115.33207679 27.22216797 114.49047852 C24.73421453 114.22404104 22.36355224 114.21212858 19.86328125 114.29296875 C19.02990234 114.26589844 18.19652344 114.23882812 17.33789062 114.2109375 C13.79977415 114.25009452 11.29387562 114.32291926 8.53369141 116.67163086 C7.51672309 117.89435638 6.53602501 119.14823752 5.59545898 120.43066406 C1.33198896 126.15173755 -6.37711479 128.9223193 -13.1953125 130 C-17.43036049 130.28409838 -21.50391532 129.70240231 -25.69921875 129.16796875 C-27.29995716 129.00483617 -28.90494277 128.87809595 -30.51171875 128.79296875 C-31.54232422 128.71949219 -31.54232422 128.71949219 -32.59375 128.64453125 C-38.06326544 130.00429947 -40.95737155 135.87345905 -43.69506836 140.39941406 C-44.15018799 141.16866211 -44.60530762 141.93791016 -45.07421875 142.73046875 C-45.55318604 143.52678711 -46.03215332 144.32310547 -46.52563477 145.14355469 C-49.2666581 149.71331057 -51.96000635 154.31032344 -54.63671875 158.91796875 C-55.18328125 159.85382813 -55.72984375 160.7896875 -56.29296875 161.75390625 C-57.41465761 163.67947213 -58.52724583 165.6103385 -59.63671875 167.54296875 C-65.9000284 175.51445376 -75.01538864 179.96060793 -84.94921875 181.16796875 C-94.95264285 181.63541847 -104.1400089 178.78186014 -111.76171875 172.2109375 C-120.30676636 163.20073609 -122.06960083 153.19169056 -121.82421875 141.16796875 C-121.48012726 132.90977302 -120.35547267 125.32498597 -118.38671875 117.2890625 C-117.78265786 114.54676334 -117.41655949 111.96170288 -117.19921875 109.16796875 C-116.91638263 105.61135139 -116.31515012 102.30631384 -115.4609375 98.84375 C-113.9788117 92.5775584 -112.72382415 86.28222579 -111.5 79.9609375 C-110.88187204 76.82636099 -110.26120607 73.69229617 -109.63989258 70.55834961 C-109.22245335 68.42994492 -108.81256831 66.30004417 -108.41040039 64.16870117 C-105.19714764 47.20528994 -101.33871684 28.16274916 -86.13671875 17.66796875 C-61.14251928 0.992899 -29.2199042 0.02587791 0 0 Z M4.11328125 12.54296875 C2.68367569 12.57496368 2.68367569 12.57496368 1.22518921 12.60760498 C-13.2639168 12.93512591 -13.2639168 12.93512591 -27.69921875 14.16796875 C-27.81259079 18.09779739 -27.68546996 19.73757314 -25.07421875 22.73046875 C-17.76737247 32.02380989 -14.89324802 41.28189817 -13.2421875 52.7734375 C-13.06712519 55.9955777 -13.06712519 55.9955777 -11.69921875 57.16796875 C-9.77160058 57.26717738 -7.84032521 57.2959624 -5.91015625 57.29736328 C-4.67217285 57.30051544 -3.43418945 57.3036676 -2.15869141 57.30691528 C-0.79720016 57.3051255 0.56429076 57.30307455 1.92578125 57.30078125 C3.31201189 57.30145434 4.69824242 57.30242441 6.08447266 57.30368042 C8.99317547 57.30515715 11.90184762 57.30300365 14.81054688 57.29833984 C18.54674723 57.29264256 22.28287577 57.29592169 26.01907349 57.30191231 C28.88257391 57.3055186 31.74605718 57.30437902 34.60955811 57.30178452 C35.98752857 57.30111543 37.36550057 57.30194301 38.74346924 57.30426407 C40.66621879 57.30679167 42.58897377 57.30225899 44.51171875 57.29736328 C45.60790527 57.29656769 46.7040918 57.29577209 47.83349609 57.29495239 C50.24501476 57.4470111 50.24501476 57.4470111 51.30078125 56.16796875 C51.57651217 54.06701901 51.82057101 51.9618924 52.05078125 49.85546875 C53.61968487 38.6457661 57.63172481 30.38151373 64.62890625 21.54296875 C66.20029069 19.31072169 66.98834105 17.85976126 67.30078125 15.16796875 C58.42375538 6.29094288 16.55276319 12.25464966 4.11328125 12.54296875 Z M90.30078125 31.16796875 C87.92618517 33.54256483 86.49374414 35.79111809 86.30078125 39.16796875 C88.13116952 44.5372146 88.13116952 44.5372146 92.30078125 48.16796875 C97.12776294 48.71295055 99.19670494 48.88101804 103.30078125 46.23046875 C105.96734989 42.14728551 106.26941109 38.92225284 105.30078125 34.16796875 C103.53048673 31.63897658 102.22832821 30.61575004 99.48828125 29.29296875 C96.074717 29.09790794 93.47471263 29.95610404 90.30078125 31.16796875 Z M-65.69921875 35.16796875 C-66.28609659 38.51410387 -66.28609659 38.51410387 -66.38671875 42.29296875 C-66.45246094 43.57429688 -66.51820312 44.855625 -66.5859375 46.17578125 C-66.62332031 47.16320313 -66.66070312 48.150625 -66.69921875 49.16796875 C-71.05572241 49.93602286 -75.33629231 50.40641908 -79.74609375 50.69140625 C-82.09715284 51.03161965 -82.09715284 51.03161965 -83.69921875 54.16796875 C-84.19678124 60.51020985 -84.19678124 60.51020985 -81.69921875 66.16796875 C-78.86652209 67.58431708 -76.22455437 67.51426925 -73.07421875 67.73046875 C-71.88570312 67.81425781 -70.6971875 67.89804688 -69.47265625 67.984375 C-68.09980469 68.07525391 -68.09980469 68.07525391 -66.69921875 68.16796875 C-66.63863281 69.23917969 -66.57804687 70.31039062 -66.515625 71.4140625 C-66.43123338 72.81121266 -66.34658469 74.20834732 -66.26171875 75.60546875 C-66.22240234 76.31251953 -66.18308594 77.01957031 -66.14257812 77.74804688 C-66.22297437 81.25487294 -66.22297437 81.25487294 -64.69921875 84.16796875 C-62.55527356 84.26714445 -60.40795143 84.29767025 -58.26171875 84.29296875 C-57.08738281 84.29554687 -55.91304687 84.298125 -54.703125 84.30078125 C-51.77513785 84.37562421 -51.77513785 84.37562421 -49.69921875 83.16796875 C-49.71984375 81.99234375 -49.74046875 80.81671875 -49.76171875 79.60546875 C-49.82988846 75.71979505 -49.28989897 72.00506465 -48.69921875 68.16796875 C-47.63960937 68.11898437 -46.58 68.07 -45.48828125 68.01953125 C-44.10023378 67.94450166 -42.71221424 67.8689539 -41.32421875 67.79296875 C-40.27621094 67.7465625 -40.27621094 67.7465625 -39.20703125 67.69921875 C-34.99736048 67.57297377 -34.99736048 67.57297377 -31.69921875 65.16796875 C-31.30284297 62.37593332 -31.30284297 62.37593332 -31.32421875 59.23046875 C-31.28167969 57.63912109 -31.28167969 57.63912109 -31.23828125 56.015625 C-31.44804628 53.129438 -31.44804628 53.129438 -33.30078125 51.33203125 C-36.40977861 49.82310419 -39.00594932 49.65263222 -42.44921875 49.48046875 C-43.6196875 49.41472656 -44.79015625 49.34898438 -45.99609375 49.28125 C-46.888125 49.24386719 -47.78015625 49.20648438 -48.69921875 49.16796875 C-48.74820313 48.09675781 -48.7971875 47.02554688 -48.84765625 45.921875 C-48.92267169 44.52471236 -48.99822005 43.12757825 -49.07421875 41.73046875 C-49.10515625 41.02341797 -49.13609375 40.31636719 -49.16796875 39.58789062 C-49.27202504 37.77557687 -49.47841767 35.96978887 -49.69921875 34.16796875 C-52.28675031 32.87420297 -54.2488086 32.99964478 -57.13671875 32.98046875 C-58.10480469 32.96628906 -59.07289062 32.95210937 -60.0703125 32.9375 C-62.93188602 32.97647424 -62.93188602 32.97647424 -65.69921875 35.16796875 Z M69.30078125 51.16796875 C67.1599633 53.7741819 67.30118458 55.19015211 67.36328125 58.60546875 C68.49339795 62.89991223 69.73327634 64.55179848 73.30078125 67.16796875 C77.52200897 68.06610231 78.96400107 67.38401641 82.61328125 65.04296875 C85.5967238 61.85137904 86.39106269 60.50147765 86.30078125 56.16796875 C84.86162447 52.52774867 83.62578648 51.36031878 80.23828125 49.35546875 C75.5475448 47.45921359 73.61396755 48.65194341 69.30078125 51.16796875 Z M108.30078125 51.16796875 C106.18187944 54.34632147 105.75738105 56.3627609 105.85546875 60.16015625 C106.21892544 62.55863272 106.21892544 62.55863272 108.92578125 65.16796875 C112.60145026 67.34614298 114.1327697 67.96609862 118.30078125 67.16796875 C121.00068787 65.36803101 122.84266775 64.08419575 124.30078125 61.16796875 C124.59772391 57.82736379 124.45171688 55.55862567 123.23828125 52.41796875 C118.72399759 47.17557482 113.71589078 47.51591814 108.30078125 51.16796875 Z M88.30078125 70.16796875 C85.80919085 73.90535435 85.8428484 75.74128458 86.30078125 80.16796875 C88.0964053 82.92125896 89.35333047 84.69424336 92.30078125 86.16796875 C96.94863505 86.58111131 99.54518277 85.95784191 103.30078125 83.16796875 C104.91279348 79.94394429 104.89514973 76.65404008 104.30078125 73.16796875 C102.04531386 70.13919826 100.34966325 68.59827932 96.86328125 67.16796875 C93.33863617 67.16796875 91.26700356 68.32231931 88.30078125 70.16796875 Z M13.30078125 75.16796875 C13.30078125 76.48796875 13.30078125 77.80796875 13.30078125 79.16796875 C17.26078125 79.16796875 21.22078125 79.16796875 25.30078125 79.16796875 C25.30078125 77.84796875 25.30078125 76.52796875 25.30078125 75.16796875 C21.34078125 75.16796875 17.38078125 75.16796875 13.30078125 75.16796875 Z M-30.13671875 88.79296875 C-32.65417472 92.61950182 -32.88675096 94.88388081 -32.94921875 99.48046875 C-32.975 100.61097656 -33.00078125 101.74148437 -33.02734375 102.90625 C-32.59813495 107.1727899 -31.15824531 109.66334761 -28.19921875 112.71484375 C-23.41606706 116.55133 -20.03587337 117.52712442 -14.046875 117.44921875 C-9.08325745 116.85457572 -5.80339242 114.33182748 -2.38671875 110.73046875 C1.09703442 105.44032504 1.64365611 101.84977655 0.8359375 95.6015625 C-0.27092334 90.56817344 -2.73623234 87.89512176 -6.76171875 84.85546875 C-15.26515347 79.97051689 -23.62338368 81.77860791 -30.13671875 88.79296875 Z M40.9453125 88.77734375 C37.91047179 93.55420493 36.67033071 98.64408207 37.671875 104.2421875 C39.34866111 109.7099683 42.56429112 113.05695591 47.30078125 116.16796875 C52.46789715 117.89034072 57.40677883 117.82358497 62.55078125 116.04296875 C66.38162474 113.43103001 69.2023994 110.36473246 71.30078125 106.16796875 C71.79218865 100.33552678 72.13153803 94.98924322 69.67578125 89.60546875 C65.18809019 84.99968056 61.03613389 82.4461402 54.61328125 81.79296875 C48.95934916 81.88668033 44.5604367 84.4850349 40.9453125 88.77734375 Z " fill="#22d3ee" transform="translate(121.69921875,0.83203125)"/>
<path d="M0 0 C0.33 0 0.66 0 1 0 C1.1953125 6.0546875 1.1953125 6.0546875 1 8 C-1 10 -1 10 -3.4803772 10.24050903 C-4.52406464 10.23606781 -5.56775208 10.23162659 -6.64306641 10.22705078 C-7.82413971 10.22689972 -9.00521301 10.22674866 -10.22207642 10.22659302 C-11.50230682 10.21627045 -12.78253723 10.20594788 -14.1015625 10.1953125 C-16.06166763 10.19106766 -16.06166763 10.19106766 -18.06137085 10.18673706 C-21.53682081 10.17909776 -25.01210383 10.1594469 -28.48748779 10.1373291 C-32.03330222 10.11687696 -35.5791436 10.10773671 -39.125 10.09765625 C-46.08340195 10.07620116 -53.04169296 10.04206173 -60 10 C-60.33 10.66 -60.66 11.32 -61 12 C-61 11.34 -61 10.68 -61 10 C-61.99 10.33 -62.98 10.66 -64 11 C-65 10 -65 10 -65.09765625 7.93359375 C-65.08605469 7.10988281 -65.07445313 6.28617188 -65.0625 5.4375 C-65.05347656 4.61121094 -65.04445313 3.78492188 -65.03515625 2.93359375 C-65.02355469 2.29550781 -65.01195313 1.65742187 -65 1 C-64.67 1 -64.34 1 -64 1 C-63.67 2.98 -63.34 4.96 -63 7 C-42.54 7 -22.08 7 -1 7 C-0.67 4.69 -0.34 2.38 0 0 Z " fill="#22d3ee" transform="translate(173,50)"/>
<path d="M0 0 C5.61 0 11.22 0 17 0 C17.33 0.66 17.66 1.32 18 2 C17.08476563 1.98839844 16.16953125 1.97679687 15.2265625 1.96484375 C14.03804687 1.95582031 12.84953125 1.94679687 11.625 1.9375 C10.44164063 1.92589844 9.25828125 1.91429687 8.0390625 1.90234375 C5.08078479 1.78533407 5.08078479 1.78533407 3 3 C2.64111754 6.59336745 2.55521657 10.16845517 2.44140625 13.77734375 C2.29574219 14.84082031 2.15007813 15.90429688 2 17 C-1.63195496 19.42130331 -3.38349348 19.21022785 -7.6875 19.125 C-8.86699219 19.10695313 -10.04648437 19.08890625 -11.26171875 19.0703125 C-12.16535156 19.04710938 -13.06898437 19.02390625 -14 19 C-12 17 -12 17 -9.1796875 16.8046875 C-8.08914062 16.82789062 -6.99859375 16.85109375 -5.875 16.875 C-4.77929688 16.89304687 -3.68359375 16.91109375 -2.5546875 16.9296875 C-1.71164063 16.95289062 -0.86859375 16.97609375 0 17 C-0.08378906 16.02417969 -0.16757812 15.04835938 -0.25390625 14.04296875 C-0.35574219 12.77066406 -0.45757812 11.49835937 -0.5625 10.1875 C-0.66691406 8.92292969 -0.77132812 7.65835938 -0.87890625 6.35546875 C-1 3 -1 3 0 0 Z " fill="#22d3ee" transform="translate(54,33)"/>
<path d="M0 0 C0.33 0 0.66 0 1 0 C1.33 1.98 1.66 3.96 2 6 C8.93 6.33 15.86 6.66 23 7 C23 7.33 23 7.66 23 8 C17.06 8 11.12 8 5 8 C4.67 8.99 4.34 9.98 4 11 C4 10.34 4 9.68 4 9 C3.01 9.33 2.02 9.66 1 10 C0 9 0 9 -0.09765625 6.93359375 C-0.08605469 6.10988281 -0.07445313 5.28617188 -0.0625 4.4375 C-0.05347656 3.61121094 -0.04445313 2.78492188 -0.03515625 1.93359375 C-0.02355469 1.29550781 -0.01195313 0.65742187 0 0 Z " fill="#22d3ee" transform="translate(108,51)"/>
<path d="M0 0 C0.33 0 0.66 0 1 0 C1.82622671 5.60563042 2.06795656 10.42289352 1 16 C0.01 16.33 -0.98 16.66 -2 17 C-1.76990234 16.21882813 -1.76990234 16.21882813 -1.53515625 15.421875 C-0.86017489 12.36721485 -0.65588882 9.36984029 -0.4375 6.25 C-0.35371094 5.07953125 -0.26992187 3.9090625 -0.18359375 2.703125 C-0.12300781 1.81109375 -0.06242188 0.9190625 0 0 Z " fill="#22d3ee" transform="translate(193,94)"/>
<path d="M0 0 C0.66 0.33 1.32 0.66 2 1 C0.02 3.31 -1.96 5.62 -4 8 C-5.32 7.34 -6.64 6.68 -8 6 C-5.36 4.02 -2.72 2.04 0 0 Z " fill="#22d3ee" transform="translate(41,15)"/>
</svg>
